<svg width="1177" height="365" viewBox="0 0 1177 365" fill="none" xmlns="http://www.w3.org/2000/svg">
<path d="M87.2023 79.2008L87.5023 92.4008L90.7023 94.2008C94.5023 96.5008 87.4023 95.2008 260.502 126.001C337.502 139.701 418.602 154.101 440.702 158.101C487.002 166.301 483.502 166.501 489.202 155.901C498.002 139.201 516.602 128.001 535.002 128.001C561.502 128.101 582.002 145.701 587.702 173.301C588.702 178.101 589.802 181.901 590.202 181.801C591.102 181.401 673.402 105.401 686.702 92.7008C697.802 81.9008 698.602 80.4008 697.502 71.4008L696.902 66.0008H391.902H86.9023L87.2023 79.2008Z" fill="black"/>
<path d="M733.502 75.0004L732.802 84.0004H726.602C716.802 84.0004 711.902 86.9004 696.102 102.3C688.602 109.6 674.402 123 664.502 132C621.902 171.1 588.702 202 578.002 212.9C565.402 225.7 559.002 229.8 547.902 232.5C524.602 238 502.202 228.3 489.702 207.2C486.102 201.2 484.202 198.9 481.902 198.1C479.402 197.2 464.302 199.7 389.702 213C340.602 221.7 254.402 237 198.002 247C141.602 257 94.5016 265.3 93.3016 265.6C89.9016 266.5 86.7016 270.6 86.7016 274.2C86.6016 276 86.7016 281.7 86.8016 286.7L87.0016 296H391.502C691.502 296 695.902 296 697.002 294.1C697.502 293 698.002 290.3 698.002 288.1C698.002 278.4 700.702 277 720.102 277H732.702L733.402 286.2C733.702 291.2 734.302 295.6 734.602 295.9C734.902 296.2 811.502 296.6 904.902 296.8C1041.4 297 1075.4 296.8 1078.5 295.8C1084.9 293.7 1085.2 292.6 1084.7 266.5C1084.3 247 1083.9 242.3 1082.1 235.5C1075.9 212.4 1063.8 198.4 1040.2 186.8L1027.9 180.8L1035.5 177.5C1048.1 172 1054 168 1063.5 158.5C1070.5 151.5 1073.4 147.8 1076.2 142C1086.4 121.2 1089.2 95.6004 1083.9 71.1004L1082.8 66.0004H908.502H734.202L733.502 75.0004ZM903.202 143.4C912.902 145.3 918.902 147.3 928.702 152.2C943.202 159.4 963.002 176 963.002 181C963.002 186.1 944.002 202 928.902 209.6C915.202 216.4 904.902 219.1 889.502 219.7C864.902 220.7 844.702 214.5 821.702 198.7C812.902 192.7 798.002 179.6 799.002 178.7C801.402 176.4 832.102 156.4 837.102 153.9C858.202 143.3 882.402 139.4 903.202 143.4Z" fill="black"/>
<path d="M528.002 144.4C513.402 147.6 503.102 157.6 499.402 172C494.002 193 508.102 214.4 529.502 217.8C557.802 222.4 580.702 194.1 570.202 167.6C563.502 150.6 545.302 140.6 528.002 144.4Z" fill="black"/>
</svg>
